<?xml version="1.0" encoding="UTF-8" standalone="no"?>
<svg width="16px" height="10px" viewBox="0 0 16 10" version="1.1" xmlns="http://www.w3.org/2000/svg" xmlns:xlink="http://www.w3.org/1999/xlink">
    <!-- Generator: Sketch 3.8.3 (29802) - http://www.bohemiancoding.com/sketch -->
    <title>f061 copy</title>
    <desc>Created with Sketch.</desc>
    <defs></defs>
    <g id="Symbols" stroke="none" stroke-width="1" fill="none" fill-rule="evenodd">
        <g id="LEESMEER" transform="translate(-72.000000, -3.000000)" fill="#F94546">
            <g id="f061-copy" transform="translate(72.000000, 3.000000)">
                <path d="M11.2937931,0.505555556 L15.4151724,4.65555556 C15.5917241,4.83333333 15.5917241,5.01111111 15.4151724,5.18888889 L11.2937931,9.33888889 C11.2165517,9.41666667 11.1282759,9.45555556 11.0289655,9.45555556 C10.9296552,9.45555556 10.8413793,9.41666667 10.7641379,9.33888889 C10.5875862,9.16111111 10.5875862,8.98333333 10.7641379,8.80555556 L14.24,5.30555556 L0.915862069,5.30555556 C0.805517241,5.30555556 0.714482759,5.26944444 0.642758621,5.19722222 C0.571034483,5.125 0.535172414,5.03333333 0.535172414,4.92222222 C0.535172414,4.81111111 0.571034483,4.71944444 0.642758621,4.64722222 C0.714482759,4.575 0.805517241,4.53888889 0.915862069,4.53888889 L14.24,4.53888889 L10.7641379,1.03888889 C10.5875862,0.861111111 10.5875862,0.683333333 10.7641379,0.505555556 C10.9406897,0.327777778 11.1172414,0.327777778 11.2937931,0.505555556 L11.2937931,0.505555556 Z" id="Shape"></path>
            </g>
        </g>
    </g>
</svg>