<?xml version="1.0" encoding="UTF-8" standalone="no"?>
<svg width="18px" height="16px" viewBox="0 0 18 16" version="1.1" xmlns="http://www.w3.org/2000/svg" xmlns:xlink="http://www.w3.org/1999/xlink">
    <!-- Generator: Sketch 3.8.3 (29802) - http://www.bohemiancoding.com/sketch -->
    <title>cloud down copy 3</title>
    <desc>Created with Sketch.</desc>
    <defs></defs>
    <g id="Design" stroke="none" stroke-width="1" fill="none" fill-rule="evenodd">
        <g id="Vraag-detail" transform="translate(-1092.000000, -1254.000000)" fill="#000000">
            <g id="cloud-down-copy-3" transform="translate(1092.000000, 1254.000000)">
                <g id="Group">
                    <path d="M18,6.13333333 C18,8.63253333 15.9818824,10.6666667 13.5,10.6666667 L10.5808235,10.6666667 L10.5808235,9.6 L13.5,9.6 C15.3974118,9.6 16.9411765,8.0448 16.9411765,6.13333333 C16.9411765,4.22186667 15.3974118,2.66666667 13.5,2.66666667 C12.9367059,2.66666667 12.3808235,2.81706667 11.8482353,3.11146667 L11.4734118,3.31946667 L11.1928235,2.99306667 C10.4315294,2.1088 9.342,1.6 8.20588235,1.6 C6.44717647,1.6 4.92458824,2.752 4.41952941,4.4672 L4.28611765,4.91733333 L3.82552941,4.84053333 C3.69952941,4.82026667 3.57352941,4.8 3.44117647,4.8 C2.12823529,4.8 1.05882353,5.87626667 1.05882353,7.2 C1.05882353,8.52373333 2.12823529,9.6 3.44117647,9.6 L7.35776471,9.6 L7.35776471,10.6666667 L3.44117647,10.6666667 C1.54376471,10.6666667 1.77635684e-15,9.11146667 1.77635684e-15,7.2 C1.77635684e-15,5.25226667 1.59988235,3.64266667 3.55023529,3.73546667 C4.30517647,1.80266667 6.12423529,0.533333333 8.20588235,0.533333333 C9.51247059,0.533333333 10.7682353,1.06026667 11.7095294,1.99146667 C12.2876471,1.7312 12.888,1.6 13.5,1.6 C15.9818824,1.6 18,3.63413333 18,6.13333333 L18,6.13333333 Z M9.52941176,13.5786667 L9.52941176,5.33333333 L8.47058824,5.33333333 L8.47058824,13.5786667 L6.72776471,11.8229333 L5.97917647,12.5770667 L9,15.6202667 L12.0218824,12.576 L11.2732941,11.8218667 L9.52941176,13.5786667 L9.52941176,13.5786667 Z" id="Shape"></path>
                </g>
            </g>
        </g>
    </g>
</svg>